<svg xmlns="http://www.w3.org/2000/svg" viewBox="0 0 1024 1024" fill="none">
  <path d="M 240.00 312.00 H 780.00 A 22.00 22.00 0 0 1 802.00 334.00 V 892.00 A 22.00 22.00 0 0 1 780.00 914.00 H 240.00 A 22.00 22.00 0 0 1 218.00 892.00 V 334.00 A 22.00 22.00 0 0 1 240.00 312.00 Z" fill="#394350" />
  <path d="M 304.00 602.00 L 304.00 736.00 L 438.00 602.00 Z" fill="#394350" />
  <path d="M 468.00 312.00 H 1236.00 A 22.00 22.00 0 0 1 1258.00 334.00 V 892.00 A 22.00 22.00 0 0 1 1236.00 914.00 H 468.00 A 22.00 22.00 0 0 1 446.00 892.00 V 334.00 A 22.00 22.00 0 0 1 468.00 312.00 Z" fill="#F05B2B" />
  <path d="M 668.00 602.00 L 742.00 602.00 L 742.00 694.00 L 694.00 650.00 Z" fill="#F05B2B" />
  <path d="M 490.00 328.00 L 582.00 328.00 L 446.00 457.00 L 582.00 586.00 L 490.00 586.00 L 338.00 457.00 Z" fill="#FFFFFF" />
</svg>
